
<svg version="1.1" id="Layer_1" xmlns="http://www.w3.org/2000/svg" xmlns:xlink="http://www.w3.org/1999/xlink" x="0px" y="0px"
	 width="700px" height="325px" viewBox="-100 438 700 325" style="enable-background:new -100 438 700 325;" xml:space="preserve">
<style type="text/css">
<![CDATA[
	.st0{fill:none;stroke:#BCBEC0;stroke-miterlimit:5;}
	.st1{fill:none;stroke:#101010;stroke-linejoin:bevel;stroke-miterlimit:5;}
]]>
	<defs>
		<style>
	
	.st0 {
				stroke-dasharray:10000;
				stoke-dashoffset:0;
				-webkit-animation: dash 4s linear forwards;
				}

	@-webkit-keyframes dash{
				from {
					stroke-dashoffset:10000;
				}
				to {
					stroke-dashoffset:0;
				}
	}
		.st1 {
					stroke-dasharray:10000;
					stoke-dashoffset:0;
					-webkit-animation: dash 6s linear forwards;
					}
	
		@-webkit-keyframes dash{
					from {
						stroke-dashoffset:10000;
					}
					to {
						stroke-dashoffset:0;
					}
		}	
		.st2 {
					stroke-dasharray:10000;
					stoke-dashoffset:0;
					-webkit-animation: dash 4s linear forwards;
					}
	
		@-webkit-keyframes dash{
					from {
						stroke-dashoffset:10000;
					}
					to {
						stroke-dashoffset:0;
					}
		}
		
		</style>
	</defs>
</style>
<path class="st0" d="M125.32,665.495l-10.268-30.227L5.487,625.864l-6.349,27.138l-16.223-1.598l-72.672-7.861l-1.505-9.837
	l93.028,8.063l-93.026-8.063l8.258-2.865l85.299,8.654l-85.299-8.654l131.549-20.079l100.71,5.725l5.592-12.981l20.127-3.193
	l85.842,3.193l-9.23,3.562l-96.739-3.562l96.739,3.562l7.912,15.848l0,0l-110.244-6.427l5.592-12.982l96.739,3.562l9.229-3.562
	l11.169,19.962l-12.486-0.553l12.486,0.553l162.798,9.253l44.354,2.897v14.568l-13.917,9.596l41.151,8.095l73.989,14.555
	L465.22,659.781l2.386-1.65l94.492,15.278l14.04,2.139l-0.058,5.915l8.212,1.895v-37.594l-7.86-0.184l-0.352,35.883l4.283,0.968
	l-61.777,1.269l-66.798-14.656l13.429-9.263l-13.429,9.263l-43.525,30.021l0.109-17.372l3.062-5.937l-3.062,5.937l70.763-46.075
	l-11.42,3.698l-56.283,36.442l47.713-30.892L49.092,618.738l-104.792,14.871l104.792-14.871v-4.914L-74.16,631.738l123.252-17.914
	l418.625,25.488l-56.283,36.445l-269.56-22.756l1.574,4.466l264.926,24.225l-0.112,17.37l-69.377-7.859l-150.937-17.095
	l150.937,17.095l-0.146,16.102l0.146-16.102l69.377,7.859l11.474-7.913l173.889-5.589l-13.262-3.128l-152.521,3.128l152.521-3.128
	l13.262,3.128v17.691l-11.299,0.181l-0.159,29.01l-6.577,0.038l-0.071-22.397l-0.02-6.543l6.827-0.107l-6.827,0.107l-236.759,3.767
	l-151.456-16.582l0.663-16.612l-40.234-4.558l3.209,9.093l-19.164,5.815l-16.71-49.191L5.486,625.868l109.563,9.403l16.71,49.191
	l19.164-5.815l-7.074-20.044l-10.124-28.682l-102.054-8.853l-26.186,4.798l-9.826,42.011l8.476-1.844c0,0-1.178-19.395,13.636-28.62
	c14.811-9.222,40.828-1.48,46.429,23.093h2.948c0,0,4.312-17.301,20.77-19.894C104.381,638.015,117.084,646.152,125.32,665.495z"/>
<path class="st0" d="M7.043,668.703c0-17.729,11.184-32.104,26.899-32.104s29.594,14.374,29.594,32.104
	c0,9.554-1.816,17.52-5.229,23.124c-1.742,2.861-11.63,6.637-16.025,8.117 M49.094,689.771c5.765-8.957,2.102-42.758-17.42-44.191
	c-16.891-1.241-24.896,15.08-24.63,23.125c0.274,8.304,2.008,12.632,2.613,14.092c4.525,10.963,15.668,21.791,32.627,17.148
	c2.584-0.706,16.356-21.3,8.914-43.868c-0.251-0.766-5.702-20.111-27.719-17.121 M21.42,666.31
	c-1.593,5.168-0.645,21.294,11.931,21.32c15.051,0.027,8.242-22.241,3.437-29.082c-4.802-6.844-10.103-5.74-10.103-5.74
	c-8.19,0.625-14.112,10.478-13.232,22.004c0.881,11.528,8.236,20.364,16.426,19.738c8.188-0.628,9.031-5.232,11.705-10.09
	c0,0,1.331-4.41,0.971-7.913c-0.492-4.762-2.165-14.22-5.766-17.998C33.182,654.763,24.182,657.344,21.42,666.31z"/>
<path class="st0" d="M65.394,677.229c0-18.461,11.643-33.426,28.006-33.426c16.363,0,30.816,14.963,30.816,33.426
	c0,9.946-1.895,18.241-5.447,24.076c-1.812,2.979-12.107,6.909-16.685,8.451 M109.175,699.164c6-9.323,2.188-44.517-18.14-46.01
	c-17.583-1.294-25.919,15.701-25.644,24.075c0.287,8.646,2.091,13.152,2.72,14.673c4.713,11.413,16.312,22.688,33.972,17.854
	c2.691-0.734,17.029-22.18,9.28-45.677c-0.262-0.793-5.938-20.938-28.857-17.828 M81.081,674.736
	c-1.658,5.379-0.67,22.171,12.423,22.197c15.669,0.029,8.58-23.158,3.579-30.281c-5.002-7.125-10.521-5.975-10.521-5.975
	c-8.528,0.65-14.693,10.91-13.777,22.91c0.917,12.001,8.577,21.202,17.104,20.55c8.527-0.651,9.405-5.446,12.187-10.507
	c0,0,1.386-4.59,1.009-8.236c-0.51-4.957-2.251-14.807-6-18.742C93.329,662.715,83.958,665.402,81.081,674.736z"/>
<g>
	<path class="st1" d="M-81.018,483.728"/>
	<path class="st1" d="M467.005,465.174"/>
	<polyline class="st1" points="88.635,587.585 88.633,650.679 96.626,651.646 44.574,646.425 44.743,583.015 	"/>
	<polyline class="st1" points="96.758,533.985 96.758,498.738 88.512,497.747 88.512,533.202 	"/>
	<polyline class="st1" points="245.688,666.594 200.025,662.015 199.47,562.782 297.16,568.057 297.144,560.672 199.731,555.382 
		199.47,562.782 199.729,506.917 193.257,506.271 193.685,661.379 200.025,662.015 148.274,656.823 148.504,502.775 
		142.026,502.263 142.235,656.22 148.274,656.823 96.626,651.646 96.626,588.417 	"/>
	<polyline class="st1" points="251.612,558.227 251.523,510.979 244.664,510.418 244.974,557.863 	"/>
	<polyline class="st1" points="37.902,582.301 37.656,645.734 44.574,646.425 -0.955,641.66 -0.816,571.546 -0.828,578.269 
		142.149,593.158 142.14,586.195 -0.816,571.546 -0.78,553.534 -0.724,524.724 -0.49,531.469 42.672,535.604 49.506,536.26 
		49.402,576.692 42.327,575.957 42.672,535.604 142.083,545.133 142.078,538.291 -0.724,524.724 -0.657,490.895 -7.251,490.402 
		-6.917,641.098 -0.955,641.66 -43.806,637.907 -44.098,487.477 -50.08,487 -50.085,637.362 -43.806,637.907 -91.258,632.807 
		-91.258,483.728 -85.314,484.199 -85.107,633.47 -91.258,632.807 -91.258,483.728 407.656,523.365 407.656,682.198 
		407.656,682.198 407.656,523.365 401.707,522.895 402.236,681.663 407.656,682.198 404.479,681.886 348.861,675.752 
		356.185,676.58 355.779,519.366 348.819,518.641 348.861,675.752 297.69,671.261 303.817,671.797 304.027,515.137 296.901,514.563 
		297.69,671.261 245.688,666.594 251.815,667.145 	"/>
	<polyline class="st1" points="44.884,529.057 44.976,494.605 38.246,493.928 38.111,528.414 	"/>
	<polyline class="st1" points="49.685,468.831 209.916,477.817 208.923,555.854 215.892,556.214 	"/>
	<polyline class="st1" points="56.519,536.93 56.691,611.178 49.635,610.759 	"/>
	<polyline class="st1" points="49.663,529.286 49.685,468.831 56.363,469.217 56.503,530.16 	"/>
	<polyline class="st1" points="101.104,541.206 100.928,581.97 100.898,588.861 100.791,613.509 49.635,610.759 	"/>
	<polyline class="st1" points="109.014,535.149 109.203,472.053 101.404,471.879 101.132,534.399 	"/>
	<polyline class="st1" points="271.255,559.267 271.784,482.051 264.496,481.636 316.173,483.728 316.14,625.593 324.079,626.048 
		325.251,484.247 316.173,483.728 365.691,486.495 365.147,629.514 373.746,629.024 374.283,487.235 365.691,486.495 
		423.263,490.642 421.519,632.776 428.261,633.193 427.093,515.34 430.794,513.812 430.484,491.115 423.263,490.642 
		479.354,493.764 479.354,636.378 479.354,493.764 473.48,493.425 472.76,635.982 479.354,636.378 151.926,615.985 160.546,616.521 
		161.226,475.305 153.577,474.859 151.926,615.985 100.791,613.509 108.776,613.712 108.849,589.689 108.868,582.783 
		108.992,541.96 	"/>
	<polyline class="st1" points="264.551,566.297 264.59,623.219 270.809,623.573 271.202,566.653 	"/>
	<polyline class="st1" points="215.892,556.214 216.733,478.295 209.916,477.817 264.496,481.636 264.544,558.902 	"/>
	<polyline class="st1" points="215.813,563.612 208.497,563.24 208.119,618.969 215.209,619.407 215.813,563.612 	"/>
	<polygon class="st1" points="479.557,636.378 479.354,636.378 479.354,493.764 477.007,494.732 477.067,637.835 479.354,636.378 
		457.173,650.52 456.019,503.396 451.928,505.089 453.09,653.126 457.173,650.52 411.978,679.346 407.656,682.198 407.656,523.365 
		411.967,521.586 411.978,679.346 407.656,682.198 407.656,523.365 427.093,515.34 428.614,668.734 433.229,665.791 432.445,513.13 
		425.914,515.828 479.354,493.764 	"/>
	<polyline class="st1" points="6.573,579.039 6.842,617.139 -8.276,619.552 -34.149,623.114 -34.928,477.775 -41.608,478.649 
		-41.161,624.299 -34.149,623.114 -91.258,632.776 -91.258,483.728 49.685,468.831 42.597,469.581 42.671,494.368 44.976,494.605 	
		"/>
	<line class="st1" x1="6.244" y1="532.114" x2="6.526" y2="572.297"/>
	<polyline class="st1" points="11.702,525.904 11.481,472.868 5.832,473.475 6.195,525.382 	"/>
	<line class="st1" x1="11.897" y1="572.85" x2="11.73" y2="532.638"/>
	<polyline class="st1" points="49.469,610.464 19.836,615.124 6.842,617.139 12.079,616.347 11.926,579.597 	"/>
	<path class="st1" d="M49.685,468.831"/>
	<polyline class="st1" points="44.667,611.218 49.312,610.61 49.506,536.26 	"/>
</g>
</svg>
