
<svg version="1.1" id="Layer_1" xmlns="http://www.w3.org/2000/svg" xmlns:xlink="http://www.w3.org/1999/xlink" x="0px" y="0px"
	 width="700px" height="325px" viewBox="150.5 566.5 700 325" style="enable-background:new 150.5 566.5 700 325;"
	 xml:space="preserve">
<style type="text/css">
<![CDATA[
	.st0{fill:none;stroke:#BCBEC0;stroke-miterlimit:5;}
	.st1{fill:none;stroke:#000000;stroke-miterlimit:5;}
	.st2{opacity:0.73;fill:none;stroke:#BCBEC0;stroke-miterlimit:5;enable-background:new    ;}
	.st3{fill:none;stroke:#BCBEC0;stroke-linejoin:bevel;stroke-miterlimit:5;}
]]>
	<defs>
		<style>
	
	.st0 {
				stroke-dasharray:10000;
				stoke-dashoffset:0;
				-webkit-animation: dash 6s linear forwards;
				}

	@-webkit-keyframes dash{
				from {
					stroke-dashoffset:10000;
				}
				to {
					stroke-dashoffset:0;
				}
	}
		.st1 {
					stroke-dasharray:10000;
					stoke-dashoffset:0;
					-webkit-animation: dash 6s linear forwards;
					}
	
		@-webkit-keyframes dash{
					from {
						stroke-dashoffset:10000;
					}
					to {
						stroke-dashoffset:0;
					}
		}	
		.st2 {
					stroke-dasharray:10000;
					stoke-dashoffset:0;
					-webkit-animation: dash 6s linear forwards;
					}
	
		@-webkit-keyframes dash{
					from {
						stroke-dashoffset:10000;
					}
					to {
						stroke-dashoffset:0;
					}
		}
		.st3 {
					stroke-dasharray:10000;
					stoke-dashoffset:0;
					-webkit-animation: dash 6s linear forwards;
					}

		@-webkit-keyframes dash{
					from {
						stroke-dashoffset:10000;
					}
					to {
						stroke-dashoffset:0;
					}
		}
		
		</style>
	</defs>
</style>
<g id="Layer_1_1_">
	<polyline class="st2" points="158.904,578.999 158.904,628.497 658.828,668.218 730.672,637.834 658.828,603.339 658.828,603.339 
		658.828,668.218 158.904,628.497 158.904,627.776 	"/>
	<polyline class="st2" points="158.904,578.999 158.904,578.999 658.828,603.339 658.828,603.339 730.672,637.834 	"/>
	<path class="st2" d="M658.828,603.339v64.879l-499.924-39.721v-49.498v49.498l141.229-15.3l430.539,24.638l-430.539-24.638
		L158.903,579"/>
	<polygon class="st2" points="730.672,637.834 658.828,668.218 658.828,603.339 658.828,603.339 	"/>
	<polygon class="st0" points="392.793,737.705 354.775,733.768 354.861,679.231 353.324,679.076 353.358,733.668 355.899,733.887 
		284.204,726.468 284.246,672.501 282.673,672.339 282.457,726.284 284.204,726.468 249.624,722.867 249.624,669.2 392.793,682.847 
			"/>
	<polygon class="st0" points="554.939,816.902 444.787,807.167 444.274,694.635 450.438,695.125 456.253,695.588 464.199,696.221 
		478.273,697.343 554.939,703.454 	"/>
	<polygon class="st0" points="548.796,809.405 499.607,804.733 499.821,791.313 499.793,792.169 548.695,795.986 548.691,795.019 
		499.821,791.313 499.865,774.981 499.855,776.261 548.672,780.036 548.672,778.907 499.865,774.981 499.998,759.73 
		548.615,763.884 548.627,762.99 500.008,758.791 499.998,759.73 500.107,743.197 548.631,747.086 548.54,746.154 500.111,742.274 
		500.107,743.197 500.162,725.946 548.571,729.19 548.479,727.921 500.068,724.794 500.047,726.755 500.155,707.258 496.489,707 
		495.788,804.445 499.607,804.733 450.415,801.017 450.394,787.99 495.877,791.959 495.887,790.876 450.449,786.908 450.394,787.99 
		450.486,770.303 450.479,771.261 495.894,775.5 495.905,774.446 450.486,770.303 450.475,754.097 450.504,755.104 496.114,759.338 
		496.121,758.169 450.475,754.097 450.402,738.831 496.247,742.798 496.254,741.988 450.402,737.836 450.401,742.094 
		450.417,720.58 450.394,721.608 496.384,725.224 496.407,724.312 450.417,720.58 450.398,703.78 474.315,705.448 472.704,705.367 
		472.039,802.324 473.143,802.393 473.805,705.412 479.374,705.802 514.836,708.287 523.201,709.07 522.257,807.135 
		523.229,807.202 524.441,709.16 521.32,708.895 548.397,710.635 	"/>
	<polygon class="st0" points="659.354,840.682 159.062,793.042 158.904,628.497 658.828,668.218 730.821,637.753 730.854,649.302 
		731.033,794.967 659.354,840.682 658.828,668.218 	"/>
	<polygon class="st3" points="541.166,829.702 541.166,848.291 541.166,848.291 533.557,856.09 532.724,875.221 410.658,860.653 
		410.658,842.284 533.557,856.09 410.658,842.284 410.658,842.284 425.806,835.298 541.166,848.291 541.166,848.291 
		425.806,835.298 425.806,835.298 425.806,835.298 425.806,818.752 541.166,829.885 541.166,829.885 425.806,818.752 
		425.806,818.752 442.729,811.643 554.939,822.167 	"/>
	<g>
		<path class="st0" d="M376.066,814.943l-10.29-30.29l-109.787-9.422l-6.362,27.194l-16.257-1.601l-72.817-7.879l-1.507-9.856
			l93.214,8.081l-93.214-8.081l8.274-2.87l85.474,8.674l-85.474-8.674l131.818-20.119l100.914,5.735l5.604-13.009l20.168-3.199
			l86.017,3.199l-9.249,3.569l-96.936-3.569l96.936,3.569l7.926,15.881l0,0l-110.465-6.442l5.603-13.008l96.935,3.571l9.25-3.571
			l11.188,20.002l-12.513-0.552l12.513,0.552l163.128,9.274l44.44,2.903v14.594l-13.944,9.618l41.24,8.111l74.137,14.583
			l-115.377-22.694l2.396-1.652l94.679,15.309l14.068,2.143l-0.058,5.929l8.229,1.898v-37.671l-7.875-0.187l-0.354,35.956
			l4.291,0.97l-61.902,1.273L703.191,818.5l13.461-9.281l-13.461,9.281l-43.612,30.081l0.11-17.406l3.07-5.947l-3.07,5.947
			l70.906-46.168l-11.441,3.705l-56.396,36.516l47.807-30.955l-410.887-26.178l-105.003,14.901l105.003-14.901v-4.925
			l-123.503,17.951l123.503-17.951l419.479,25.54l-56.396,36.517l-270.11-22.8l1.58,4.473l265.461,24.274l-0.112,17.406
			l-69.518-7.874l-151.242-17.132l151.242,17.132l-0.145,16.132l0.145-16.132l69.518,7.874l11.499-6.485l174.241-5.601
			l-13.289-4.582l-152.833,3.139l152.832-3.139l13.29,3.139v17.725l-11.324,0.182l-0.159,29.069l-6.593,0.04l-0.067-22.445
			l-0.021-6.556l6.841-0.107l-6.841,0.107l-237.237,3.773l-151.765-16.616l0.666-16.646l-40.316-4.566l3.216,9.109l-19.201,5.827
			l-16.744-49.291l-109.787-9.421l109.787,9.421l16.744,49.291l19.201-5.827l-7.088-20.08l-10.144-28.74l-102.261-8.872
			l-26.239,4.809l-9.847,42.097l8.493-1.851c0,0-1.179-19.432,13.665-28.676c14.842-9.243,40.911-1.485,46.524,23.139h2.954
			c0,0,4.319-17.333,20.812-19.936C355.082,787.409,367.813,795.561,376.066,814.943z"/>
		<path class="st0" d="M257.547,818.158c0-17.767,11.206-32.168,26.954-32.168c15.746,0,29.656,14.401,29.656,32.168
			c0,9.572-1.821,17.555-5.24,23.169c-1.745,2.869-11.654,6.649-16.057,8.135 M299.684,839.268
			c5.776-8.974,2.106-42.844-17.457-44.281c-16.924-1.245-24.946,15.11-24.68,23.172c0.275,8.321,2.012,12.658,2.617,14.121
			c4.536,10.984,15.7,21.835,32.695,17.182c2.589-0.709,16.39-21.343,8.931-43.958c-0.254-0.765-5.714-20.151-27.775-17.156
			 M271.954,815.761c-1.597,5.181-0.648,21.338,11.954,21.362c15.082,0.03,8.258-22.286,3.444-29.143
			c-4.812-6.855-10.124-5.752-10.124-5.752c-8.206,0.627-14.143,10.501-13.258,22.051c0.882,11.55,8.252,20.404,16.458,19.775
			c8.205-0.627,9.05-5.242,11.729-10.11c0,0,1.334-4.419,0.974-7.929c-0.493-4.771-2.168-14.247-5.777-18.035
			C283.741,804.188,274.723,806.775,271.954,815.761z"/>
		<path class="st0" d="M316.017,826.7c0-18.497,11.667-33.492,28.062-33.492c16.395,0,30.876,14.995,30.876,33.492
			c0,9.967-1.896,18.28-5.456,24.125c-1.82,2.984-12.134,6.923-16.72,8.469 M359.887,848.682
			c6.014-9.345,2.194-44.608-18.174-46.106c-17.622-1.296-25.974,15.732-25.697,24.125c0.286,8.666,2.094,13.18,2.723,14.702
			c4.723,11.438,16.347,22.736,34.042,17.892c2.695-0.737,17.065-22.223,9.298-45.77c-0.262-0.797-5.95-20.98-28.918-17.862
			 M331.735,824.204c-1.66,5.392-0.671,22.215,12.448,22.242c15.701,0.031,8.598-23.205,3.586-30.343
			c-5.012-7.14-10.542-5.986-10.542-5.986c-8.544,0.652-14.724,10.933-13.805,22.956c0.918,12.025,8.593,21.244,17.136,20.591
			c8.543-0.652,9.423-5.459,12.212-10.525c0,0,1.387-4.602,1.01-8.257c-0.511-4.968-2.255-14.836-6.013-18.778
			C344.008,812.155,334.619,814.849,331.735,824.204z"/>
	</g>
</g>
<g id="Layer_2">
	<polyline class="st1" points="158.904,628.497 158.904,645.069 158.904,628.497 658.828,668.218 658.885,686.937 158.904,645.069 
		156.806,662.874 658.828,703.78 658.828,720.619 554.939,712.139 658.828,720.619 658.828,737.705 554.939,731.086 
		554.939,712.139 554.939,712.139 554.939,703.454 444.274,694.635 444.274,703.454 444.274,718.455 444.274,703.454 
		431.719,702.271 392.793,698.604 392.793,682.847 392.793,698.604 392.793,713.762 444.274,718.455 444.274,732.892 
		392.793,728.561 392.793,713.762 392.793,728.561 392.793,734.59 249.624,722.867 249.624,716.65 158.904,707.266 249.624,716.65 
		249.624,701.491 158.904,691.746 249.624,701.491 249.624,685.972 159.047,676.948 249.624,685.972 249.624,670.296 
		158.904,662.873 159.047,676.948 156.806,691.387 158.904,691.746 158.904,707.266 157.046,720.74 444.787,748.048 
		444.274,732.892 444.787,748.048 444.787,748.048 444.787,762.484 159.047,734.59 159.047,734.59 158.904,720.917 159.047,734.59 
		157.046,749.629 444.274,777.305 444.787,762.484 444.274,777.305 444.274,793.208 444.274,793.208 444.274,807.101 
		444.274,793.208 425.789,791.289 158.904,763.566 158.904,763.566 159.09,749.635 159.09,749.635 158.904,763.566 157.046,777.523 
		443.205,807.003 658.885,826.825 658.885,840.682 541.26,829.442 554.939,822.167 442.729,811.643 425.806,818.752 
		425.806,835.298 410.658,842.284 410.658,842.284 410.658,860.653 532.724,875.221 533.557,856.09 410.658,842.284 533.557,856.09 
		541.166,848.291 425.806,835.298 541.166,848.291 533.557,856.09 541.166,848.291 541.26,829.442 543.22,829.622 425.806,818.752 
		159.062,793.042 159.047,777.579 	"/>
	<polygon class="st1" points="730.672,637.834 732.098,656.498 664.924,684.427 658.885,686.937 730.663,657.095 730.672,637.834 
		658.906,668.18 658.885,686.937 658.828,703.78 730.882,672.259 732.098,688.259 658.828,720.619 658.828,737.705 730.902,703.454 
		732.098,720.74 659.097,755.768 658.828,737.705 554.939,731.086 554.939,749.629 554.939,767.178 659.152,774.396 
		659.097,755.768 554.939,749.629 659.097,755.768 659.152,774.396 730.963,737.705 732.098,755.749 658.828,793.208 
		659.152,774.396 554.939,767.178 554.939,784.354 554.939,784.354 554.939,801.824 658.885,811.643 658.828,793.208 
		554.939,784.354 658.828,793.208 658.885,811.643 731.033,770.426 732.098,784.742 658.885,826.825 658.885,811.643 
		554.939,801.824 554.939,817.281 658.885,826.825 658.885,840.682 731.033,798.217 730.598,785.005 	"/>
	<polygon class="st1" points="158.904,578.999 658.828,603.339 658.885,623.609 658.828,603.339 730.672,637.834 658.885,623.609 
		658.885,647.716 158.904,611.626 156.806,628.497 658.906,668.18 658.885,647.716 730.672,637.834 658.885,623.609 
		158.904,594.184 158.904,611.626 158.904,594.184 156.806,594.06 	"/>
</g>
</svg>
