
<svg version="1.1" id="Layer_1" xmlns="http://www.w3.org/2000/svg" xmlns:xlink="http://www.w3.org/1999/xlink" x="0px" y="0px"
	 width="700px" height="325px" viewBox="0 0 700 325" style="enable-background:new 0 0 700 325;" xml:space="preserve">
<style type="text/css">
<![CDATA[
	.st0{fill:none;stroke:#BCBEC0;stroke-miterlimit:5;}
	.st1{fill:none;stroke:#000000;stroke-miterlimit:5;}
	.st2{fill:none;stroke:#6D6E71;stroke-miterlimit:5;}
	.st3{fill:none;stroke:#BCBEC0;stroke-linejoin:bevel;stroke-miterlimit:5;}
	.st4{opacity:0.73;fill:none;stroke:#BCBEC0;stroke-miterlimit:5;}
	.st5{fill:none;stroke:#E1E1E1;stroke-miterlimit:5;}
]]>
	<defs>
		<style>
	
	.st0 {
				stroke-dasharray:10000;
				stoke-dashoffset:0;
				-webkit-animation: dash 4s linear forwards;
				}

	@-webkit-keyframes dash{
				from {
					stroke-dashoffset:10000;
				}
				to {
					stroke-dashoffset:0;
				}
	}
		.st1 {
					stroke-dasharray:10000;
					stoke-dashoffset:0;
					-webkit-animation: dash 4s linear forwards;
					}
	
		@-webkit-keyframes dash{
					from {
						stroke-dashoffset:10000;
					}
					to {
						stroke-dashoffset:0;
					}
		}	
		.st2 {
					stroke-dasharray:10000;
					stoke-dashoffset:0;
					-webkit-animation: dash 4s linear forwards;
					}
	
		@-webkit-keyframes dash{
					from {
						stroke-dashoffset:10000;
					}
					to {
						stroke-dashoffset:0;
					}
		}
		.st3 {
					stroke-dasharray:10000;
					stoke-dashoffset:0;
					-webkit-animation: dash 4s linear forwards;
					}

		@-webkit-keyframes dash{
					from {
						stroke-dashoffset:10000;
					}
					to {
						stroke-dashoffset:0;
					}
		}
		.st4 {
					stroke-dasharray:10000;
					stoke-dashoffset:0;
					-webkit-animation: dash 4s linear forwards;
					}
	
		@-webkit-keyframes dash{
					from {
						stroke-dashoffset:10000;
					}
					to {
						stroke-dashoffset:0;
					}
		}
		.st5 {
					stroke-dasharray:10000;
					stoke-dashoffset:0;
					-webkit-animation: dash 4s linear forwards;
					}

		@-webkit-keyframes dash{
					from {
						stroke-dashoffset:10000;
					}
					to {
						stroke-dashoffset:0;
					}
		}
	
			
		</style>
	</defs>
</style>
<polyline class="st4" points="13.279,14.902 13.279,63.976 508.909,103.355 580.136,73.231 508.909,39.033 508.909,39.033 
	508.909,103.355 13.279,63.976 13.279,63.26 "/>
<polyline class="st4" points="13.279,14.902 13.279,14.902 508.909,39.033 508.909,39.033 580.136,73.231 "/>
<path class="st4" d="M508.909,39.033v64.322L13.279,63.976V14.902v49.073l140.016-15.169l426.841,24.425L153.294,48.806
	L13.279,14.902"/>
<polygon class="st4" points="580.136,73.231 508.909,103.355 508.909,39.033 508.909,39.033 "/>
<polygon class="st2" points="245.16,170.336 207.117,166.756 207.554,114.273 206.029,114.12 205.71,166.657 208.229,166.875 
	137.22,160.937 137.559,108.44 135.999,108.279 135.772,160.199 137.503,160.342 103.219,157.535 103.219,105.416 245.16,117.121 
	"/>
<polygon class="st0" points="405.912,250.762 296.707,241.109 296.198,129.543 302.309,130.03 308.072,130.49 315.952,131.119 
	329.902,132.229 405.912,138.287 "/>
<polygon class="st0" points="509.433,274.337 13.435,227.109 13.279,63.976 508.909,103.355 580.279,73.15 580.315,84.6 
	580.494,229.018 509.433,274.337 508.909,103.355 "/>
<polygon class="st3" points="392.257,263.451 392.257,281.884 392.257,281.884 384.712,289.613 383.888,308.582 262.871,294.139 
	262.871,275.924 384.712,289.613 262.871,275.924 262.871,275.924 277.89,269.001 392.257,281.884 392.257,281.884 277.89,269.001 
	277.89,269.001 277.89,269.001 277.89,252.596 392.257,263.633 392.257,263.633 277.89,252.596 277.89,252.596 294.665,245.548 
	405.912,255.981 "/>
<g>
	<path class="st5" d="M228.575,248.82l-10.201-30.029L109.53,209.45l-6.305,26.958l-16.119-1.585l-72.191-7.811l-1.495-9.771
		l92.414,8.012l-92.414-8.012l8.202-2.846l84.741,8.598l-84.741-8.598l130.687-19.946l100.047,5.688l5.556-12.898l19.994-3.173
		l85.279,3.173l-9.17,3.541l-96.103-3.541l96.103,3.541l7.858,15.742l0,0l-109.517-6.385l5.556-12.898l96.103,3.541l9.17-3.541
		l11.091,19.831l-12.402-0.548l12.402,0.548l161.726,9.191l44.062,2.879v14.467l-13.826,9.538l40.885,8.04l73.503,14.46
		l-114.388-22.5l2.374-1.641l93.867,15.18l13.946,2.123l-0.056,5.878l8.159,1.882v-37.349l-7.81-0.185l-0.35,35.651l4.256,0.96
		l-61.371,1.259l-66.36-14.557l13.344-9.202l-13.344,9.202l-43.239,29.82l0.11-17.255l3.044-5.899l-3.044,5.899l70.299-45.772
		l-11.344,3.673l-55.911,36.2l47.399-30.689L152.85,202.371L48.748,217.146l104.102-14.774v-4.881L30.408,215.288L152.85,197.49
		l415.87,25.322l-55.911,36.2l-267.787-22.604l1.565,4.437l263.178,24.067l-0.11,17.255l-68.92-7.805l-149.943-16.985
		l149.943,16.985l-0.143,15.99l0.143-15.99l68.92,7.805l11.4-6.431l172.744-5.551l-13.174-4.541l-151.524,3.111l151.524-3.111
		l13.174,3.111v17.57l-11.223,0.182l-0.159,28.817l-6.535,0.038l-0.068-22.251l-0.021-6.501l6.783-0.104l-6.783,0.104
		l-235.201,3.741L290.132,273.88l0.659-16.503l-39.968-4.528l3.188,9.032l-19.038,5.778l-16.599-48.868L109.53,209.45l108.844,9.341
		l16.599,48.868l19.038-5.778l-7.027-19.909l-10.056-28.495l-101.384-8.794l-26.014,4.768l-9.762,41.733l8.42-1.831
		c0,0-1.17-19.266,13.547-28.429c14.716-9.162,40.56-1.475,46.124,22.939h2.929c0,0,4.282-17.185,20.635-19.764
		C207.772,221.518,220.394,229.604,228.575,248.82z"/>
	<path class="st5" d="M111.077,252.006c0-17.612,11.108-31.891,26.72-31.891c15.611,0,29.401,14.278,29.401,31.891
		c0,9.491-1.806,17.407-5.194,22.972c-1.731,2.843-11.553,6.591-15.919,8.063 M152.85,272.936
		c5.725-8.896,2.089-42.474-17.306-43.901c-16.779-1.231-24.731,14.981-24.467,22.972c0.271,8.252,1.994,12.549,2.593,14
		c4.498,10.89,15.564,21.65,32.414,17.035c2.567-0.703,16.249-21.16,8.854-43.58c-0.25-0.757-5.667-19.978-27.537-17.01
		 M125.356,249.632c-1.581,5.132-0.639,21.151,11.854,21.177c14.95,0.029,8.187-22.095,3.413-28.895
		c-4.771-6.797-10.037-5.699-10.037-5.699c-8.135,0.624-14.021,10.412-13.144,21.86c0.875,11.45,8.18,20.228,16.317,19.606
		c8.134-0.623,8.971-5.199,11.627-10.022c0,0,1.322-4.379,0.964-7.862c-0.488-4.729-2.151-14.125-5.729-17.883
		C137.042,238.157,128.102,240.721,125.356,249.632z"/>
	<path class="st5" d="M169.042,260.476c0-18.338,11.567-33.205,27.823-33.205c16.254,0,30.611,14.867,30.611,33.205
		c-0.001,9.881-1.88,18.122-5.408,23.918c-1.803,2.96-12.029,6.862-16.575,8.397 M212.535,282.268
		c5.962-9.263,2.176-44.224-18.017-45.709c-17.471-1.285-25.751,15.596-25.477,23.917c0.284,8.592,2.078,13.067,2.702,14.575
		c4.683,11.339,16.206,22.543,33.75,17.74c2.671-0.732,16.916-22.033,9.219-45.378c-0.262-0.786-5.901-20.801-28.671-17.707
		 M184.626,258.002c-1.648,5.345-0.665,22.025,12.341,22.051c15.566,0.027,8.523-23.006,3.555-30.08
		c-4.968-7.081-10.45-5.938-10.45-5.938c-8.471,0.646-14.598,10.837-13.687,22.759c0.912,11.921,8.52,21.062,16.99,20.414
		c8.471-0.647,9.342-5.412,12.108-10.436c0,0,1.376-4.562,1.001-8.185c-0.507-4.924-2.237-14.709-5.962-18.615
		C196.793,246.057,187.484,248.728,184.626,258.002z"/>
</g>
<polyline class="st2" points="13.279,63.976 13.279,80.404 13.279,63.976 508.909,103.355 508.969,121.912 13.279,80.404 
	11.199,98.057 508.909,138.611 508.909,155.305 405.912,146.898 508.909,155.305 508.909,172.247 405.912,165.686 405.912,146.898 
	405.912,146.898 405.912,138.287 296.198,129.543 296.198,138.287 245.16,133.479 245.16,117.121 245.16,133.479 245.16,133.479 
	245.16,148.509 296.198,153.159 296.268,138.293 296.268,138.293 296.198,153.159 296.198,153.159 296.198,167.475 245.16,163.179 
	245.16,170.336 103.219,157.535 103.219,151.372 13.279,142.066 103.219,151.372 103.219,136.343 13.279,126.682 103.219,136.343 
	103.219,120.958 13.42,112.012 103.219,120.958 103.219,105.416 13.279,98.056 13.42,112.012 11.199,126.324 13.279,126.682 
	13.279,142.066 11.437,155.425 296.707,182.499 296.198,167.475 296.707,182.499 296.707,196.813 13.42,169.159 13.42,169.159 
	13.279,155.601 13.42,169.159 11.437,184.065 296.198,211.504 296.707,196.813 296.198,211.504 296.198,227.271 296.198,227.271 
	296.198,241.045 296.198,227.271 277.87,225.367 13.279,197.885 13.279,197.885 13.464,184.074 13.464,184.074 13.279,197.885 
	11.437,211.721 295.136,240.948 508.969,260.602 508.969,274.337 392.348,263.191 405.912,255.981 294.665,245.548 277.89,252.596 
	277.89,269.001 262.871,275.924 262.871,275.924 262.871,294.139 383.888,308.582 384.712,289.613 262.871,275.924 384.712,289.613 
	392.257,281.884 277.89,269.001 392.257,281.884 384.712,289.613 392.257,281.884 392.348,263.191 394.293,263.374 277.89,252.596 
	13.435,227.109 13.42,211.779 "/>
<polygon class="st2" points="580.136,73.231 581.55,91.736 514.955,119.423 508.969,121.912 580.128,92.328 580.136,73.231 
	508.985,103.318 508.969,121.912 508.909,138.611 580.346,107.36 581.55,123.224 508.909,155.305 508.909,172.247 580.363,138.287 
	581.55,155.425 509.174,190.154 508.909,172.247 405.912,165.686 405.912,184.065 405.912,201.464 509.232,208.623 509.174,190.154 
	405.912,184.065 509.174,190.154 509.232,208.623 580.424,172.247 581.55,190.133 508.909,227.271 509.232,208.623 405.912,201.464 
	405.912,218.494 405.912,218.494 405.912,235.813 508.969,245.548 508.909,227.271 405.912,218.494 508.909,227.271 
	508.969,245.548 580.494,204.686 581.55,218.88 508.969,260.602 508.969,245.548 405.912,235.813 405.912,251.14 508.969,260.602 
	508.969,274.337 580.494,232.236 580.063,219.14 "/>
<polygon class="st2" points="13.279,14.902 508.909,39.033 508.969,59.128 508.909,39.033 580.136,73.231 508.969,59.128 
	508.969,83.03 13.279,47.248 11.199,63.976 508.985,103.318 508.969,83.03 580.136,73.231 508.969,59.128 13.279,29.957 
	13.279,47.248 13.279,29.957 11.199,29.834 "/>
<g>
	<path class="st1" d="M421.812,155.998c-3.754-3.964-5.906-0.257-7.274,1.968c-1.367,2.227-0.943,8.39-0.943,8.39l4.967,41.602
		c0,0,1.181,17.185,1.181,17.955c0,0.77-0.814,7.125-0.896,8.925c-0.089,1.795,1.345,5.735,1.345,5.735l1.368,14.208
		c0,0,1.972,41.26,2.139,44.514c0.172,3.253,3.082,3.165,5.483,2.995c2.391-0.172,2.822-3.081,2.822-4.453
		c0-1.37-4.795-42.97-4.795-42.97s0.517-2.225,0.345-5.393c-0.172-3.165-0.942-3.937-0.942-3.937l-0.512-5.052
		c1.622-1.199,1.967-6.165,1.967-6.165c1.115-9.757-2.309-8.644-2.479-9.843c-0.171-1.2-0.344-3.596-0.86-4.965
		c-0.511-1.37-1.023-53.243-1.023-53.243S423.448,157.724,421.812,155.998z"/>
	<path class="st1" d="M436.228,157.744c-2.688-4.756-5.669-1.675-7.536,0.156c-1.865,1.831-2.936,7.914-2.936,7.914l-5.216,41.57
		c0,0-2.999,16.963-3.182,17.71c-0.19,0.747-2.512,6.719-3.028,8.444c-0.517,1.724-0.076,5.893-0.076,5.893l-2.098,14.117
		c0,0-8.04,40.519-8.658,43.715c-0.618,3.2,2.229,3.816,4.594,4.23c2.368,0.409,3.485-2.312,3.815-3.639
		c0.332-1.328,5.71-42.858,5.71-42.858s1.037-2.037,1.635-5.153s0.037-4.048,0.037-4.048l0.72-5.026
		c1.869-0.77,3.396-5.506,3.396-5.506c3.436-9.202-0.157-8.947-0.034-10.152c0.124-1.203,0.533-3.572,0.366-5.025
		c-0.166-1.452,11.847-51.919,11.847-51.919S437.397,159.812,436.228,157.744z"/>
	<path class="st1" d="M438.934,195.137c0,0-3.936-1.882-4.62,3.768c0,0-2.953,0.598-2.185,1.114c0.771,0.513,3.465-0.131,3.34,1.024
		c-0.127,1.156-1.284,8.475,0,9.889c1.285,1.411,0,0.514,0,0.514s0.771,2.825,0.516,5.775c-0.26,2.956-0.516,79.097-0.516,79.097
		s0.213,0.942-0.387,1.028c-0.597,0.085-3.252,0.254-1.196,0.854h1.112v0.772h0.471v2.822h0.642v-2.569l0.514-0.253V298.2
		l1.028-0.171c0,0,3.08-0.43-0.855-0.94l-0.6-1.199l1.111-80.979c0,0,0.257-1.368,0.429-2.654c0.167-1.282-1.113-1.881-0.516-4.106
		c0.601-2.228-0.34-4.965-0.256-5.565c0.088-0.599-0.084-5.82,0.943-6.161c1.024-0.345-1.627-1.03-0.855,5.562
		c0.769,6.593,0.855,7.703,0.94,7.96c0.086,0.258,4.792,87.228,4.792,87.228l-0.427,1.37c0,0-2.995,0.43-1.8,0.683
		c1.2,0.259,1.8,0,1.8,0l0.085,0.859l0.342,0.085l0.342,3.769h0.601v-3.943l0.428-0.083v-0.77l1.542-0.17
		c0,0,1.797-0.344-1.626-0.772l-0.517-1.286l-4.468-88.595c0,0,0.189-8.301,0.444-9.415
		C439.789,197.792,441.848,196.162,438.934,195.137z"/>
	<path class="st1" d="M6.592,213.871c0,0,18.22-6.71,44.543,6.571c26.322,13.28,52.71,30.111,73.202,31.567
		c20.492,1.458,74.922-10.571,88.364,4.082c13.439,14.651,64.636-0.518,64.636,4.392v8.4l-15.019,6.926v18.212l121.017,14.441
		l0.828-18.967l7.544-7.731v-18.246c0,0,4.341,6.771,16.01,12.419c0.515,0.251-4.058,20.752-4.219,21.325
		c-0.812,2.96,3.222,4.672,6.201,3.988c2.853-0.655,4.154-17.479,4.931-23.361c0.178-1.357,5.21,0.199,8.136,0.508
		c0.679,0.069,0.796,20.27,0.931,20.896c0.31,1.377,0.453,1.881,1.344,2.519c1.25,0.892,3.471,0.512,4.14,0.477
		c0.795-0.038,2.919-1.847,2.822-4.453c-0.186-5.106-1.598-14.931-2.105-19.46c-0.103-0.91,4.133-2.142,4.637-2.243
		c30.379-6.097,106.986-1.911,150.28,17.684c49.241,22.283,103.527,0.031,110.682,0"/>
</g>
<polygon class="st2" points="399.822,243.328 351.055,238.701 351.268,225.395 351.238,226.242 399.724,230.027 399.717,229.065 
	351.268,225.395 351.311,209.2 351.302,210.469 399.699,214.213 399.699,213.094 351.311,209.2 351.443,194.081 399.645,198.199 
	399.653,197.313 351.452,193.149 351.443,194.081 351.552,177.691 399.66,181.545 399.568,180.621 351.555,176.774 351.552,177.691 
	351.605,160.588 399.6,163.805 399.506,162.544 351.514,159.446 351.49,161.391 351.6,142.06 347.964,141.805 347.27,238.413 
	351.055,238.701 302.286,235.011 302.265,222.099 347.357,226.036 347.369,224.96 302.318,221.026 302.265,222.099 302.356,204.564 
	302.348,205.512 347.374,209.717 347.384,208.668 302.356,204.564 302.345,188.495 302.375,189.495 347.59,193.69 347.6,192.534 
	302.345,188.495 302.272,173.362 347.723,177.293 347.731,176.491 302.272,172.375 302.272,176.598 302.288,155.27 302.265,156.286 
	347.86,159.873 347.884,158.968 302.288,155.27 302.269,138.611 325.979,140.266 324.384,140.184 323.723,236.311 324.818,236.379 
	325.474,140.231 330.996,140.617 366.155,143.079 374.446,143.857 373.509,241.079 374.474,241.145 375.678,143.945 
	372.584,143.681 399.427,145.406 "/>
</svg>
