
<svg version="1.1" id="Layer_1" xmlns="http://www.w3.org/2000/svg" xmlns:xlink="http://www.w3.org/1999/xlink" x="0px" y="0px"
	 width="700px" height="325px" viewBox="-99.5 450.5 700 325" style="enable-background:new -99.5 450.5 700 325;"
	 xml:space="preserve">
<style type="text/css">
<![CDATA[
	.st0{opacity:0.73;fill:none;stroke:#000000;stroke-miterlimit:5;enable-background:new    ;}
	.st1{fill:none;stroke:#000000;stroke-miterlimit:5;}
	.st2{fill:none;stroke:#D1D3D4;stroke-miterlimit:5;}
	.st3{fill:none;stroke:#D1D3D4;stroke-linejoin:bevel;stroke-miterlimit:5;}
	.st4{fill:none;stroke:#000000;stroke-linejoin:bevel;stroke-miterlimit:5;}
]]>
	<defs>
		<style>
	
	.st0 {
				stroke-dasharray:10000;
				stoke-dashoffset:0;
				-webkit-animation: dash 4s linear forwards;
				}

	@-webkit-keyframes dash{
				from {
					stroke-dashoffset:10000;
				}
				to {
					stroke-dashoffset:0;
				}
	}
		.st1 {
					stroke-dasharray:10000;
					stoke-dashoffset:0;
					-webkit-animation: dash 4s linear forwards;
					}
	
		@-webkit-keyframes dash{
					from {
						stroke-dashoffset:10000;
					}
					to {
						stroke-dashoffset:0;
					}
		}	
		.st2 {
					stroke-dasharray:10000;
					stoke-dashoffset:0;
					-webkit-animation: dash 4s linear forwards;
					}
	
		@-webkit-keyframes dash{
					from {
						stroke-dashoffset:10000;
					}
					to {
						stroke-dashoffset:0;
					}
		}
		.st3 {
					stroke-dasharray:10000;
					stoke-dashoffset:0;
					-webkit-animation: dash 4s linear forwards;
					}

		@-webkit-keyframes dash{
					from {
						stroke-dashoffset:10000;
					}
					to {
						stroke-dashoffset:0;
					}
		}
		.st4 {
					stroke-dasharray:10000;
					stoke-dashoffset:0;
					-webkit-animation: dash 4s linear forwards;
					}
	
		@-webkit-keyframes dash{
					from {
						stroke-dashoffset:10000;
					}
					to {
						stroke-dashoffset:0;
					}
		}
			
		</style>
	</defs>
</style>
<g id="Layer_1_1_">
	<path class="st2" d="M124.009,693.595l-10.326-30.399L3.506,653.741l-6.383,27.292l-16.314-1.609l-73.074-7.905l-1.514-9.892
		l93.546,8.108l-93.546-8.108l8.307-2.882l85.775,8.702l-85.775-8.702l132.285-20.19l101.271,5.757l5.625-13.057l20.238-3.212
		l86.322,3.212l-9.282,3.583l-97.278-3.583l97.276,3.583l7.955,15.938l0,0l-110.856-6.464l5.625-13.057l97.276,3.583l9.284-3.583
		l11.229,20.074l-12.558-0.554l12.558,0.554l163.705,9.308l44.601,2.911v14.649l-13.995,9.649l41.386,8.142l74.4,14.638
		l-115.786-22.779l2.402-1.658l95.014,15.362l14.119,2.15l-0.057,5.949l8.26,1.907v-37.803l-7.906-0.188l-0.354,36.086l4.306,0.974
		l-62.119,1.274L452.3,697.161l13.509-9.314l-13.509,9.314l-43.769,30.189l0.111-17.469l3.081-5.97l-3.081,5.97l71.157-46.333
		l-11.482,3.719l-56.594,36.645l47.979-31.065L47.357,646.574l-105.378,14.959l105.378-14.956v-4.939l-123.943,18.011
		l123.943-18.013l420.963,25.63l-56.597,36.646l-271.067-22.879l1.586,4.488l266.402,24.36l-0.111,17.469l-69.764-7.905
		l-151.783-17.188l151.783,17.188l-0.146,16.188l0.146-16.188l69.764,7.905l11.537-7.959l174.861-5.618l-13.338-3.15l-153.374,3.15
		l153.373-3.15l13.336,3.15v17.784l-11.362,0.185l-0.16,29.171l-6.614,0.04l-0.07-22.526l-0.02-6.576l6.864-0.108l-6.864,0.108
		l-238.084,3.786L186.32,718.962l0.665-16.706l-40.456-4.581l3.227,9.142l-19.272,5.848l-16.802-49.465L3.504,653.741l110.177,9.458
		l16.802,49.465l19.272-5.848l-7.113-20.153l-10.181-28.844l-102.624-8.904l-26.333,4.826l-9.882,42.247l8.522-1.855
		c0,0-1.184-19.501,13.709-28.776c14.898-9.275,41.059-1.491,46.692,23.219h2.965c0,0,4.333-17.395,20.887-20.005
		C102.953,665.962,115.728,674.143,124.009,693.595z"/>
	<path class="st2" d="M5.071,696.817c0-17.824,11.247-32.277,27.05-32.277c15.8,0,29.761,14.454,29.761,32.277
		c0,9.611-1.828,17.621-5.26,23.256c-1.752,2.877-11.692,6.674-16.112,8.164 M47.357,718.005
		c5.796-9.005,2.115-42.996-17.518-44.438c-16.983-1.252-25.035,15.163-24.769,23.251c0.276,8.355,2.021,12.705,2.626,14.175
		c4.553,11.022,15.754,21.913,32.812,17.244c2.596-0.715,16.447-21.424,8.962-44.116c-0.254-0.767-5.737-20.222-27.874-17.218
		 M19.528,694.416c-1.603,5.193-0.648,21.411,11.996,21.432c15.136,0.032,8.288-22.363,3.458-29.244
		c-4.831-6.883-10.163-5.769-10.163-5.769c-8.235,0.627-14.19,10.535-13.305,22.125c0.886,11.593,8.282,20.478,16.516,19.845
		c8.235-0.627,9.083-5.259,11.772-10.145c0,0,1.335-4.436,0.974-7.956c-0.493-4.789-2.176-14.3-5.796-18.101
		C31.357,682.8,22.308,685.397,19.528,694.416z"/>
	<path class="st2" d="M63.749,705.393c0-18.562,11.707-33.611,28.16-33.611c16.455,0,30.985,15.05,30.985,33.611
		c0,10.003-1.901,18.344-5.476,24.21c-1.822,2.996-12.173,6.945-16.774,8.498 M107.773,727.45
		c6.036-9.375,2.203-44.764-18.239-46.266c-17.685-1.304-26.065,15.786-25.786,24.208c0.286,8.694,2.1,13.227,2.733,14.757
		c4.739,11.477,16.402,22.812,34.163,17.952c2.703-0.739,17.125-22.302,9.333-45.93c-0.267-0.799-5.972-21.055-29.022-17.927
		 M79.522,702.887c-1.667,5.411-0.674,22.297,12.493,22.322c15.756,0.03,8.629-23.288,3.598-30.451
		c-5.028-7.165-10.579-6.007-10.579-6.007c-8.578,0.654-14.779,10.969-13.854,23.037c0.92,12.068,8.621,21.32,17.194,20.662
		c8.575-0.653,9.459-5.476,12.257-10.561c0,0,1.393-4.619,1.016-8.287c-0.514-4.984-2.266-14.887-6.037-18.843
		C91.839,690.796,82.416,693.501,79.522,702.887z"/>
	<path class="st3" d="M-83.48,510.81"/>
	<path class="st3" d="M467.601,492.153"/>
	<polyline class="st3" points="87.12,615.248 87.118,678.691 95.153,679.667 42.812,674.419 42.98,610.653 	"/>
	<polyline class="st3" points="95.287,561.349 95.287,525.906 86.997,524.907 86.997,560.561 	"/>
	<polyline class="st3" points="245.049,694.697 199.131,690.094 198.591,586.405 296.806,593.265 296.77,585.726 198.629,578.262 
		198.573,590.308 198.833,534.132 192.326,533.479 192.754,689.455 199.131,690.094 147.089,684.876 147.32,529.967 140.808,529.45 
		141.018,684.266 147.089,684.876 95.153,679.667 95.153,616.085 	"/>
	<polyline class="st3" points="251.006,582.246 250.917,538.215 244.018,537.651 244.307,581.738 	"/>
	<polyline class="st3" points="36.103,609.935 35.854,673.722 42.812,674.419 -2.971,669.625 -2.83,599.121 -2.844,605.88 
		140.934,620.853 140.924,613.853 -2.83,599.121 -2.795,581.009 -2.737,552.033 -2.502,558.815 40.899,562.977 47.774,563.635 
		47.667,604.296 40.551,603.559 40.899,562.977 140.868,572.56 140.862,565.677 -2.737,552.033 -2.671,518.02 -9.301,517.523 
		-8.965,669.06 -2.971,669.625 -46.063,665.851 -46.356,514.579 -52.37,514.101 -52.376,665.304 -46.063,665.851 -93.78,660.724 
		-93.78,510.81 -87.804,511.285 -87.593,661.39 -93.78,660.724 -93.78,510.81 407.921,550.673 407.921,710.39 407.921,710.39 
		407.921,550.673 401.939,550.195 402.472,709.85 407.921,710.39 404.728,710.073 348.798,703.905 356.161,704.743 355.754,546.648 
		348.755,545.918 348.798,703.905 297.342,699.393 303.503,699.933 303.713,542.396 296.549,541.819 297.342,699.393 
		245.049,694.697 251.211,695.25 	"/>
	<polyline class="st3" points="43.124,556.392 43.215,521.747 36.45,521.07 36.313,555.745 	"/>
	<polyline class="st3" points="47.951,495.831 209.077,504.869 208.285,579.071 215.296,579.432 	"/>
	<polyline class="st3" points="54.823,564.314 54.996,638.975 47.902,638.55 	"/>
	<polyline class="st3" points="47.931,556.622 47.951,495.831 54.667,496.22 54.808,557.501 	"/>
	<polyline class="st3" points="99.657,568.61 99.482,609.601 99.45,616.534 99.342,641.317 47.902,638.55 	"/>
	<polyline class="st3" points="107.612,562.52 107.803,499.071 99.957,498.895 99.688,561.765 	"/>
	<polyline class="st3" points="270.776,583.75 271.289,509.128 263.959,508.706 315.928,510.81 315.894,653.471 323.878,653.926 
		325.056,511.33 315.928,510.81 365.723,513.594 365.174,657.411 373.821,656.921 374.362,514.34 365.723,513.594 423.613,517.765 
		421.861,660.691 428.643,661.113 427.466,542.602 431.188,541.065 430.876,518.24 423.613,517.765 480.019,520.905 
		480.019,664.313 480.019,520.905 474.113,520.561 473.389,663.917 480.019,664.313 150.764,643.809 159.431,644.347 
		160.116,502.341 152.423,501.895 150.764,643.809 99.342,641.317 107.375,641.521 107.446,617.363 107.465,610.422 107.588,569.37 
			"/>
	<polyline class="st3" points="264.011,590.975 264.055,651.079 270.312,651.437 270.705,591.444 	"/>
	<polyline class="st3" points="215.296,579.432 215.932,505.348 209.077,504.869 263.959,508.706 264.011,583.234 	"/>
	<polyline class="st3" points="215.34,587.494 207.984,587.121 207.992,647.795 215.122,648.236 215.34,587.494 	"/>
	<polygon class="st3" points="480.223,664.313 480.019,664.313 480.019,520.905 477.658,521.877 477.719,665.779 480.019,664.313 
		457.713,678.535 456.553,530.59 452.438,532.29 453.609,681.155 457.713,678.535 412.267,707.522 407.921,710.39 407.921,550.673 
		412.255,548.882 412.267,707.522 407.921,710.39 407.921,550.673 427.466,542.602 429.001,696.852 433.638,693.892 432.849,540.38 
		426.281,543.09 480.019,520.905 	"/>
	<polyline class="st3" points="4.6,606.654 4.869,644.965 -10.335,647.391 -36.351,650.977 -37.134,504.822 -43.853,505.702 
		-43.4,652.168 -36.351,650.977 -93.78,660.691 -93.78,510.81 47.951,495.831 40.823,496.584 40.897,521.51 43.215,521.747 	"/>
	<line class="st3" x1="4.267" y1="559.466" x2="4.551" y2="599.876"/>
	<polyline class="st3" points="9.757,553.223 9.535,499.893 3.852,500.499 4.22,552.696 	"/>
	<line class="st3" x1="9.952" y1="600.43" x2="9.784" y2="559.995"/>
	<polyline class="st3" points="47.733,638.251 17.938,642.943 4.869,644.965 10.136,644.17 9.983,607.215 	"/>
	<path class="st3" d="M47.951,495.831"/>
	<polyline class="st3" points="42.905,639.014 47.576,638.403 47.772,563.635 	"/>
</g>
<g id="Layer_2">
	<polyline class="st0" points="-93.938,461.185 -93.938,510.857 407.761,550.718 479.859,520.228 407.761,485.609 407.761,485.609 
		407.761,550.718 -93.938,510.857 -93.938,510.133 	"/>
	<polyline class="st0" points="-93.938,461.185 -93.938,461.185 407.761,485.609 407.761,485.609 479.859,520.228 	"/>
	<path class="st0" d="M407.761,485.609v65.108l-501.698-39.86v-49.673v49.675l141.731-15.355l432.065,24.724L47.794,495.504
		l-141.731-34.322"/>
	<polygon class="st0" points="479.859,520.228 407.761,550.718 407.761,485.609 407.761,485.609 	"/>
	<polygon class="st1" points="140.78,620.454 102.629,616.502 102.715,561.771 101.173,561.614 101.205,616.401 103.755,616.624 
		31.807,609.175 31.85,555.018 30.27,554.854 30.054,608.991 31.807,609.175 -2.898,605.562 -2.898,551.705 140.78,565.4 	"/>
	<polygon class="st1" points="303.503,699.933 192.96,690.158 192.446,577.228 198.632,577.722 204.466,578.186 212.441,578.821 
		226.562,579.946 303.503,586.079 	"/>
	<polygon class="st1" points="297.338,692.405 247.977,687.72 248.189,674.253 248.162,675.108 297.238,678.938 297.234,677.968 
		248.189,674.253 248.232,657.862 248.223,659.145 297.215,662.935 297.215,661.799 248.232,657.862 248.366,642.557 
		297.158,646.724 297.169,645.828 248.376,641.612 248.366,642.557 248.477,625.965 297.175,629.866 297.082,628.933 
		248.479,625.039 248.477,625.965 248.531,608.652 297.114,611.906 297.021,610.633 248.437,607.498 248.415,609.464 
		248.525,589.897 244.846,589.639 244.141,687.431 247.977,687.72 198.607,683.989 198.587,670.916 244.234,674.901 
		244.241,673.812 198.642,669.829 198.587,670.916 198.681,653.167 198.672,654.127 244.248,658.383 244.26,657.324 
		198.681,653.167 198.667,636.902 198.696,637.916 244.469,642.162 244.474,640.986 198.667,636.902 198.595,621.584 
		244.601,625.563 244.611,624.75 198.595,620.583 198.594,624.856 198.607,603.266 198.587,604.301 244.742,607.928 
		244.763,607.012 198.607,603.266 198.591,586.405 222.592,588.08 220.975,587.999 220.309,685.302 221.417,685.369 
		222.079,588.046 227.669,588.437 263.259,590.928 271.652,591.717 270.705,690.127 271.681,690.194 272.896,591.807 
		269.766,591.54 296.938,593.286 	"/>
	<polygon class="st1" points="408.291,723.797 -93.78,675.984 -93.938,510.857 407.761,550.718 480.007,520.145 480.043,531.734 
		480.223,677.919 408.291,723.797 407.761,550.718 	"/>
	<polygon class="st4" points="289.681,712.776 289.681,731.43 289.681,731.43 282.046,739.259 281.21,758.456 158.71,743.838 
		158.71,725.401 282.046,739.259 158.71,725.401 158.71,725.401 173.913,718.393 289.681,731.43 289.681,731.43 173.913,718.393 
		173.913,718.393 173.913,718.393 173.913,701.786 289.681,712.96 289.681,712.96 173.913,701.786 173.913,701.786 190.893,694.654 
		303.503,705.214 	"/>
</g>
</svg>
