
<svg version="1.1" id="Layer_2" xmlns="http://www.w3.org/2000/svg" xmlns:xlink="http://www.w3.org/1999/xlink" x="0px" y="0px"
	 width="700px" height="150px" viewBox="-99.5 475.5 700 150" style="enable-background:new -99.5 475.5 700 150;"
	 xml:space="preserve">
<style type="text/css">
<![CDATA[
	.st0{fill:none;stroke:#000000;stroke-miterlimit:5;}
]]>
	<defs>
		<style>
	
	.st0 {
				stroke-dasharray:10000;
				stoke-dashoffset:0;
				-webkit-animation: dash 4s linear forwards;
				}

	@-webkit-keyframes dash{
				from {
					stroke-dashoffset:10000;
				}
				to {
					stroke-dashoffset:0;
				}
	}
		</style>
	</defs>
</style>
<path class="st0" d="M123.72,552.321l-10.296-30.315l-109.881-9.43l-6.365,27.218l-16.271-1.602l-72.878-7.887l-1.507-9.863
	l93.292,8.088l-93.292-8.088l8.281-2.874l85.545,8.681l-85.544-8.681l131.928-20.137l100.997,5.744l5.608-13.02l20.185-3.203
	l86.088,3.203l-9.257,3.574l-97.015-3.574l97.016,3.574l7.933,15.892l0,0l-110.557-6.446l5.608-13.02l97.016,3.573l9.257-3.573
	l11.2,20.016l-12.524-0.551l12.524,0.551l163.265,9.284l44.479,2.904v14.607l-13.959,9.625l41.274,8.12l74.199,14.595
	l-115.474-22.716l2.398-1.652l94.761,15.32l14.079,2.145l-0.061,5.934l8.238,1.901v-37.702l-7.884-0.187l-0.354,35.988l4.296,0.971
	l-61.952,1.272l-66.994-14.701l13.469-9.289l-13.469,9.289l-43.651,30.107l0.112-17.422l3.07-5.953l-3.07,5.953l70.964-46.206
	l-11.45,3.708l-56.443,36.545l47.848-30.978l-411.228-26.2l-105.092,14.912l105.093-14.915v-4.929l-123.605,17.967l123.605-17.967
	l419.825,25.562l-56.442,36.546l-270.336-22.817l1.58,4.477l265.685,24.295l-0.112,17.419l-69.576-7.88L186.53,560.96l151.37,17.146
	l-0.145,16.146l0.145-16.146l69.576,7.88l11.507-7.934l174.387-5.605l-13.303-3.142l-152.958,3.142l152.958-3.142l13.303,3.142
	v17.738l-11.331,0.185l-0.159,29.089l-6.6,0.042l-0.066-22.466l-0.025-6.56l6.85-0.105l-6.85,0.105l-237.434,3.777l-151.891-16.63
	l0.666-16.661l-40.348-4.568l3.217,9.117l-19.218,5.829l-16.755-49.331l-109.881-9.43l109.881,9.43l16.755,49.331l19.218-5.829
	l-7.094-20.1l-10.152-28.766l-102.347-8.881l-26.261,4.812l-9.854,42.132l8.5-1.851c0,0-1.18-19.446,13.675-28.699
	c14.854-9.253,40.945-1.487,46.562,23.156h2.957c0,0,4.323-17.345,20.83-19.95C102.721,524.761,115.46,532.922,123.72,552.321z"/>
<path class="st0" d="M5.104,555.537c0-17.779,11.215-32.192,26.975-32.192s29.68,14.413,29.68,32.192
	c0,9.582-1.822,17.57-5.243,23.191c-1.748,2.868-11.665,6.653-16.072,8.14 M47.275,576.666c5.778-8.979,2.107-42.878-17.471-44.315
	c-16.939-1.245-24.969,15.123-24.702,23.188c0.274,8.329,2.013,12.669,2.62,14.136c4.54,10.99,15.713,21.853,32.721,17.196
	c2.592-0.71,16.404-21.363,8.939-43.996c-0.252-0.765-5.72-20.166-27.798-17.172 M19.52,553.141
	c-1.596,5.181-0.646,21.352,11.966,21.377c15.093,0.03,8.265-22.304,3.447-29.166c-4.815-6.861-10.131-5.755-10.131-5.755
	c-8.212,0.627-14.154,10.508-13.271,22.066c0.886,11.561,8.261,20.42,16.473,19.794c8.212-0.627,9.058-5.246,11.738-10.119
	c0,0,1.335-4.424,0.974-7.936c-0.493-4.776-2.17-14.261-5.783-18.052C31.318,541.558,22.291,544.146,19.52,553.141z"/>
<path class="st0" d="M63.621,564.089c0-18.51,11.677-33.519,28.086-33.519c16.408,0,30.903,15.009,30.903,33.519
	c0,9.977-1.898,18.295-5.461,24.146c-1.818,2.987-12.143,6.929-16.731,8.475 M107.528,586.088
	c6.019-9.353,2.194-44.645-18.188-46.145c-17.637-1.296-25.994,15.746-25.719,24.146c0.286,8.673,2.096,13.191,2.726,14.717
	c4.728,11.447,16.361,22.753,34.072,17.905c2.694-0.736,17.078-22.242,9.304-45.807c-0.261-0.797-5.954-20.999-28.941-17.878
	 M79.354,561.591c-1.663,5.396-0.672,22.233,12.458,22.26c15.714,0.03,8.605-23.224,3.59-30.369
	c-5.017-7.145-10.552-5.992-10.552-5.992c-8.551,0.653-14.736,10.942-13.815,22.977c0.92,12.035,8.598,21.264,17.149,20.607
	c8.551-0.653,9.433-5.461,12.224-10.534c0,0,1.388-4.604,1.013-8.263c-0.513-4.972-2.259-14.849-6.019-18.797
	C91.638,549.532,82.241,552.228,79.354,561.591z"/>
</svg>
